<svg xmlns="http://www.w3.org/2000/svg" width="304" height="121" viewBox="0 0 304 121" version="1.1">
  <path d="M257.76 73.74C257.54 73.87 257.33 73.99 257.12 74.12 256.08 74.69 255 75.26 253.9 75.82 252.79 76.38 251.68 76.88 250.55 77.31 249.43 77.75 248.34 78.1 247.27 78.36 246.21 78.62 245.21 78.75 244.28 78.75 242.8 78.75 241.43 78.1 240.16 76.8 238.89 75.5 237.78 73.76 236.83 71.57 236.58 70.98 236.34 70.37 236.12 69.73 233.61 71.19 231.37 72.48 229.39 73.58 227.34 74.73 225.51 75.69 223.92 76.45 222.32 77.22 220.89 77.79 219.65 78.18 218.41 78.56 217.28 78.75 216.27 78.75 214.19 78.75 212.36 78.12 210.77 76.86 209.18 75.61 207.86 73.79 206.79 71.43 206.58 70.95 206.37 70.45 206.18 69.93 205.72 70.5 205.19 71.11 204.6 71.78 203.54 72.95 202.36 74.07 201.05 75.14 199.74 76.21 198.33 77.11 196.82 77.85 195.32 78.59 193.82 78.96 192.31 78.96 190.51 78.96 189 78.37 187.8 77.21 186.6 76.05 185.56 74.36 184.68 72.15 184.03 72.91 183.22 73.69 182.26 74.48 181.31 75.28 180.26 76 179.13 76.64 177.99 77.28 176.81 77.81 175.58 78.22 174.35 78.63 173.12 78.83 171.89 78.83 170.57 78.83 169.3 78.57 168.05 78.03 166.81 77.5 165.71 76.73 164.75 75.74 163.92 74.87 163.23 73.84 162.69 72.64 161.71 73.31 160.66 73.96 159.56 74.61 158.21 75.4 156.79 76.1 155.3 76.72 153.81 77.33 152.26 77.83 150.66 78.2 149.06 78.57 147.44 78.75 145.8 78.75 143.23 78.75 140.98 78.29 139.05 77.36 137.13 76.43 135.52 75.17 134.23 73.6 133.73 72.98 133.27 72.32 132.86 71.62 132.15 72.15 131.37 72.72 130.52 73.32 129.61 73.96 128.62 74.61 127.55 75.26 126.48 75.92 125.41 76.5 124.33 77.01 123.25 77.51 122.17 77.93 121.09 78.26 120.01 78.59 118.98 78.75 117.99 78.75 116.49 78.75 115.18 78.35 114.08 77.54 112.97 76.73 112.06 75.71 111.35 74.46 110.64 73.22 110.1 71.86 109.75 70.38 109.39 68.91 109.21 67.51 109.21 66.2 109.21 65.32 109.33 64.35 109.56 63.27 109.8 62.19 110.08 61.1 110.42 60.01 110.77 58.91 111.15 57.85 111.57 56.81 112 55.77 112.39 54.84 112.76 54.02 113.13 53.2 113.45 52.53 113.73 52.01 114 51.49 114.18 51.19 114.26 51.11L113.4 50.98C112.93 51.28 112.15 52.05 111.04 53.28 109.93 54.51 108.68 56.06 107.29 57.93 105.89 59.81 104.45 61.91 102.96 64.25 101.47 66.59 100.12 69 98.92 71.49 98.32 72.72 97.83 73.79 97.44 74.71 97.06 75.63 96.68 76.38 96.32 76.97 95.95 77.55 95.54 78 95.11 78.3 94.67 78.6 94.11 78.75 93.42 78.75 92.52 78.75 91.81 78.49 91.29 77.97 90.77 77.45 90.38 76.76 90.1 75.9 89.83 75.04 89.65 74.06 89.57 72.97 89.51 72.17 89.47 71.35 89.45 70.52 88.93 70.92 88.4 71.28 87.87 71.61 85.72 72.95 83.7 73.62 81.82 73.62 80.91 73.62 80.07 73.48 79.27 73.19 78.48 72.91 77.78 72.46 77.16 71.86 76.55 71.26 76.03 70.48 75.62 69.52 75.21 68.56 74.93 67.43 74.76 66.12 73.39 68.66 71.92 70.95 70.35 72.99 68.78 75.02 67.11 76.76 65.35 78.2 63.58 79.63 61.74 80.74 59.81 81.52 57.88 82.3 55.89 82.69 53.84 82.69 51.25 82.69 49.04 82 47.22 80.64 45.4 79.27 43.92 77.41 42.79 75.06 41.66 72.71 40.83 69.95 40.31 66.77 39.79 63.6 39.53 60.22 39.53 56.64 39.53 55.33 39.6 54.1 39.73 52.95 39.87 51.8 39.98 50.78 40.06 49.88 39.08 56.11 37.84 61.33 36.35 65.52 34.86 69.72 33.11 73.09 31.1 75.63 29.09 78.18 26.79 79.99 24.21 81.07 21.63 82.15 18.76 82.69 15.62 82.69 13.81 82.69 12.09 82.09 10.45 80.9 8.81 79.71 7.37 77.94 6.12 75.59 4.88 73.24 3.88 70.29 3.13 66.75 2.38 63.21 2 59.08 2 54.35 2 51.45 2.16 48.47 2.49 45.42 2.82 42.38 3.29 39.32 3.91 36.26 4.52 33.2 5.28 30.16 6.18 27.15 7.09 24.14 8.11 21.22 9.26 18.38 9.94 16.79 10.63 15.55 11.31 14.66 11.99 13.77 12.69 13.12 13.4 12.69 14.11 12.27 14.83 12.02 15.56 11.94 16.28 11.85 17.01 11.81 17.75 11.81 18.35 11.81 18.9 11.85 19.39 11.94 19.88 12.02 20.3 12.19 20.64 12.45 20.98 12.71 21.24 13.08 21.42 13.56 21.6 14.03 21.69 14.68 21.69 15.5 21.69 16.43 21.46 17.81 21.01 19.63 20.56 21.44 19.99 23.54 19.31 25.92 18.62 28.3 17.89 30.88 17.09 33.67 16.3 36.46 15.56 39.29 14.88 42.16 14.2 45.04 13.63 47.86 13.18 50.63 12.73 53.41 12.5 55.99 12.5 58.37 12.5 60.31 12.63 62.12 12.89 63.8 13.15 65.48 13.55 66.94 14.1 68.19 14.65 69.43 15.33 70.41 16.15 71.12 16.97 71.83 17.94 72.19 19.06 72.19 20.18 72.19 21.27 71.86 22.32 71.2 23.38 70.55 24.39 69.64 25.38 68.5 26.36 67.35 27.31 65.98 28.21 64.39 29.11 62.81 29.98 61.09 30.81 59.25 31.65 57.4 32.43 55.46 33.17 53.42 33.91 51.39 34.61 49.33 35.26 47.25 37.56 39.92 39.6 31.6 41.38 22.27 41.7 20.77 42.09 19.51 42.54 18.5 43 17.49 43.54 16.68 44.16 16.08 44.79 15.48 45.52 15.05 46.36 14.81 47.19 14.56 48.16 14.44 49.25 14.44 50.29 14.44 51.14 14.53 51.81 14.72 52.48 14.92 53.02 15.18 53.41 15.5 53.81 15.83 54.09 16.23 54.25 16.69 54.42 17.16 54.5 17.68 54.5 18.25 54.5 18.44 54.39 19.24 54.17 20.65 53.95 22.06 53.67 23.86 53.33 26.07 52.99 28.27 52.62 30.76 52.22 33.55 51.83 36.34 51.46 39.2 51.12 42.14 50.77 45.08 50.49 47.99 50.28 50.86 50.06 53.73 49.95 56.37 49.95 58.78 49.95 61.24 50.04 63.46 50.21 65.44 50.39 67.42 50.69 69.11 51.12 70.51 51.54 71.9 52.09 72.97 52.78 73.71 53.46 74.44 54.31 74.81 55.32 74.81 57.07 74.81 58.66 74.13 60.1 72.76 61.53 71.39 62.85 69.57 64.04 67.29 65.23 65 66.29 62.36 67.24 59.35 68.18 56.34 69.01 53.2 69.74 49.92 70.46 46.63 71.09 43.33 71.62 39.99 72.16 36.65 72.6 33.5 72.96 30.54 73.31 27.57 73.59 24.9 73.8 22.54 74 20.17 74.15 18.32 74.23 16.98 74.31 15.59 74.56 14.46 74.99 13.62 75.41 12.77 75.95 12.11 76.61 11.65 77.26 11.18 78.01 10.88 78.84 10.73 79.68 10.58 80.53 10.5 81.41 10.5 82.09 10.5 82.71 10.58 83.27 10.73 83.83 10.88 84.32 11.14 84.73 11.5 85.14 11.87 85.45 12.37 85.67 12.98 85.89 13.6 86 14.38 86 15.34 86 17.99 85.83 20.86 85.49 23.93 85.15 27.01 84.72 30.09 84.22 33.18 83.71 36.27 83.16 39.28 82.58 42.21 81.99 45.13 81.44 47.77 80.93 50.12 80.43 52.47 80 54.46 79.66 56.07 79.32 57.68 79.15 58.71 79.15 59.14 79.15 60.21 79.3 61.12 79.6 61.87 79.9 62.62 80.31 63.25 80.81 63.74 81.32 64.23 81.92 64.59 82.62 64.8 83.31 65.02 84.06 65.13 84.85 65.13 85.64 65.13 86.46 64.95 87.29 64.58 88.06 64.24 88.79 63.78 89.5 63.2 89.5 62.94 89.5 62.68 89.51 62.41 89.55 59.44 89.68 56.15 89.9 52.54 90.12 48.93 90.43 45.13 90.84 41.14 91.25 37.15 91.83 33.2 92.58 29.31 93.33 25.41 94.28 21.69 95.41 18.15 96.55 14.61 97.93 11.49 99.56 8.8 101.18 6.1 103.09 3.96 105.28 2.38 107.46 0.79 109.98 0 112.82 0 114.3 0 115.51 0.22 116.45 0.66 117.4 1.09 118.15 1.71 118.71 2.5 119.27 3.29 119.66 4.25 119.88 5.35 120.1 6.46 120.21 7.7 120.21 9.06 120.21 11.09 119.92 13.33 119.35 15.79 118.77 18.25 118.01 20.81 117.07 23.46 116.13 26.11 115.05 28.8 113.85 31.52 112.65 34.24 111.42 36.88 110.16 39.44 108.9 41.99 107.66 44.41 106.45 46.68 105.23 48.95 104.16 50.94 103.23 52.66L104.05 53.24C105.17 51.76 106.43 50.18 107.82 48.48 109.21 46.79 110.66 45.21 112.17 43.74 113.67 42.28 115.17 41.06 116.66 40.09 118.15 39.12 119.55 38.64 120.86 38.64 121.19 38.64 121.56 38.7 121.97 38.82 122.38 38.94 122.77 39.17 123.14 39.5 123.51 39.83 123.82 40.28 124.06 40.87 124.31 41.46 124.43 42.22 124.43 43.15 124.43 45.01 124.17 46.82 123.65 48.58 123.13 50.35 122.57 52.11 121.95 53.87 121.33 55.64 120.77 57.44 120.27 59.27 119.76 61.1 119.51 63.01 119.51 65.01 119.51 66.1 119.67 66.98 120 67.63 120.33 68.29 120.75 68.62 121.27 68.62 121.93 68.62 122.63 68.48 123.37 68.21 124.1 67.94 124.84 67.58 125.58 67.14 126.32 66.71 127.04 66.21 127.75 65.65 128.46 65.08 129.13 64.5 129.76 63.9 129.99 63.69 130.21 63.48 130.43 63.27 130.4 62.73 130.38 62.19 130.38 61.65 130.38 60.12 130.53 58.5 130.83 56.79 131.13 55.08 131.59 53.4 132.2 51.76 132.82 50.12 133.59 48.56 134.52 47.07 135.45 45.58 136.54 44.26 137.78 43.13 139.03 41.99 140.42 41.09 141.97 40.42 143.51 39.75 145.23 39.42 147.11 39.42 148.64 39.42 150.07 39.66 151.38 40.15 152.69 40.65 153.83 41.34 154.8 42.23 155.77 43.11 156.53 44.19 157.08 45.45 157.63 46.7 157.9 48.11 157.9 49.67 157.9 51.37 157.48 53.06 156.65 54.76 155.82 56.45 154.66 58.05 153.18 59.55 151.71 61.06 149.95 62.4 147.91 63.57 145.88 64.75 143.67 65.67 141.29 66.32 141.7 67.06 142.1 67.68 142.5 68.17 142.9 68.66 143.3 69.04 143.71 69.32 144.12 69.59 144.55 69.78 145 69.89 145.45 70 145.94 70.05 146.46 70.05 148.1 70.05 149.83 69.73 151.65 69.07 153.46 68.41 155.23 67.59 156.96 66.61 158.68 65.62 160.31 64.55 161.84 63.39 161.87 63.37 161.9 63.34 161.93 63.32 162.06 62.52 162.24 61.72 162.45 60.91 163.03 58.75 163.82 56.64 164.83 54.57 165.84 52.51 167.04 50.56 168.42 48.73 169.8 46.89 171.31 45.29 172.95 43.93 174.59 42.56 176.32 41.47 178.14 40.67 179.96 39.86 181.81 39.46 183.7 39.46 184.33 39.46 184.82 39.58 185.18 39.83 185.53 40.07 185.83 40.35 186.06 40.67 186.29 40.98 186.52 41.29 186.73 41.59 186.95 41.89 187.23 42.11 187.55 42.25 187.88 42.38 188.22 42.47 188.56 42.51 188.9 42.55 189.25 42.57 189.61 42.57 189.91 42.57 190.21 42.57 190.53 42.55 190.84 42.54 191.15 42.53 191.45 42.53 191.86 42.53 192.24 42.57 192.6 42.66 192.96 42.74 193.27 42.92 193.54 43.19 193.82 43.46 194.03 43.85 194.18 44.34 194.33 44.83 194.4 45.5 194.4 46.35 194.4 47.66 194.27 49.12 193.99 50.72 193.72 52.32 193.42 53.96 193.09 55.64 192.76 57.32 192.46 59 192.19 60.68 191.92 62.36 191.78 63.96 191.78 65.46 191.78 66.75 191.9 67.75 192.13 68.48 192.36 69.2 192.86 69.56 193.63 69.56 194.2 69.56 194.8 69.42 195.43 69.13 196.06 68.84 196.69 68.47 197.34 68 197.98 67.54 198.62 67.01 199.26 66.42 199.91 65.84 200.52 65.23 201.09 64.6 202.09 63.49 203.11 62.28 204.13 60.96 203.77 58.08 203.59 54.92 203.59 51.47 203.59 49.83 203.66 48.08 203.8 46.22 203.93 44.37 204.12 42.52 204.37 40.69 203.55 40.58 202.92 40.48 202.46 40.38 202.01 40.28 201.53 40.19 201.03 40.09 200.52 40 199.88 39.89 199.1 39.79 198.32 39.68 197.19 39.54 195.72 39.38 195.06 39.29 194.55 39.14 194.2 38.9 193.84 38.67 193.58 38.4 193.42 38.08 193.26 37.77 193.16 37.44 193.13 37.1 193.11 36.76 193.09 36.46 193.09 36.22 193.09 35.67 193.36 35.25 193.89 34.97 194.42 34.68 195.11 34.47 195.94 34.33 196.78 34.19 197.69 34.12 198.69 34.1 199.69 34.09 200.65 34.1 201.56 34.13 202.48 34.15 203.3 34.17 204.02 34.19 204.75 34.2 205.25 34.18 205.52 34.13 206.26 30.43 207.19 26.86 208.33 23.4 209.46 19.94 210.74 16.86 212.14 14.17 213.55 11.48 215.09 9.32 216.76 7.69 218.43 6.06 220.18 5.25 222.01 5.25 223.18 5.25 224.26 5.58 225.23 6.23 226.2 6.89 227.03 7.77 227.71 8.86 228.39 9.95 228.92 11.23 229.29 12.69 229.66 14.16 229.84 15.68 229.84 17.27 229.84 18.61 229.65 20.02 229.27 21.51 228.88 23 228.37 24.52 227.71 26.07 227.05 27.61 226.28 29.18 225.39 30.76 224.5 32.35 223.57 33.92 222.58 35.48 222.83 35.51 223.24 35.53 223.81 35.54 224.39 35.55 225.05 35.57 225.8 35.6 226.55 35.63 227.37 35.66 228.24 35.7 229.12 35.75 229.96 35.78 230.79 35.81 231.61 35.83 232.37 35.86 233.08 35.89 233.79 35.92 234.38 35.94 234.85 35.97 235.39 36 235.79 36.27 236.04 36.79 236.08 36.88 236.12 36.97 236.15 37.07 236.78 34.38 237.52 31.67 238.35 28.96 239.3 25.89 240.36 22.96 241.55 20.14 242.74 17.32 244.03 14.69 245.43 12.24 246.82 9.8 248.29 7.66 249.82 5.84 251.35 4.03 252.95 2.6 254.62 1.56 256.28 0.52 257.98 0 259.7 0 260.88 0 261.85 0.27 262.61 0.8 263.38 1.33 263.98 2.04 264.42 2.91 264.86 3.79 265.16 4.78 265.34 5.89 265.52 6.99 265.61 8.12 265.61 9.27 265.61 11.84 265.31 14.46 264.73 17.12 264.14 19.79 263.34 22.47 262.35 25.16 261.35 27.86 260.19 30.56 258.88 33.26 257.57 35.97 256.2 38.66 254.78 41.32 253.36 43.99 251.93 46.61 250.49 49.2 249.06 51.78 247.71 54.3 246.45 56.77 246.32 57.04 246.17 57.39 246.02 57.83 245.87 58.27 245.73 58.74 245.59 59.25 245.46 59.75 245.32 60.29 245.18 60.87 245.04 61.44 244.94 62 244.85 62.55L244.85 63.12C244.85 63.83 244.93 64.52 245.08 65.19 245.23 65.86 245.41 66.47 245.63 67 245.85 67.53 246.08 67.96 246.33 68.27 246.58 68.58 246.81 68.74 247.03 68.74 247.55 68.74 248.14 68.63 248.81 68.41 249.48 68.2 250.19 67.9 250.94 67.53 251.7 67.16 252.47 66.74 253.26 66.26 254.05 65.78 254.82 65.3 255.56 64.8 255.75 64.67 255.95 64.54 256.15 64.41 256.21 63.09 256.3 61.84 256.44 60.66 256.67 58.67 257.01 56.77 257.45 54.96 257.88 53.16 258.43 51.41 259.09 49.73 259.74 48.05 260.49 46.35 261.34 44.63 261.97 43.39 262.87 42.46 264.05 41.82 265.22 41.17 266.37 40.85 267.49 40.85 268.45 40.85 269.27 41.09 269.96 41.57 270.64 42.05 270.98 42.79 270.98 43.8 270.98 44.11 270.95 44.43 270.88 44.79 270.81 45.14 270.69 45.53 270.53 45.94 270.04 47.2 269.55 48.68 269.07 50.39 268.59 52.1 268.17 53.85 267.8 55.64 267.43 57.43 267.14 59.19 266.92 60.91 266.7 62.63 266.59 64.15 266.59 65.46 266.59 66.14 266.64 66.81 266.74 67.45 266.83 68.09 267 68.67 267.25 69.17 267.49 69.68 267.82 70.09 268.23 70.4 268.64 70.72 269.16 70.88 269.79 70.88 270.8 70.88 271.72 70.44 272.54 69.56 273.36 68.69 274.07 67.63 274.67 66.4 275.27 65.17 275.76 63.9 276.13 62.59 276.5 61.28 276.74 60.18 276.85 59.31L279.72 47.25C279.94 46.32 280.33 45.49 280.89 44.77 281.45 44.04 282.09 43.44 282.81 42.94 283.54 42.45 284.3 42.08 285.09 41.84 285.88 41.59 286.63 41.47 287.35 41.47 288.19 41.47 288.9 41.65 289.48 42.02 290.05 42.39 290.34 42.97 290.34 43.76 290.34 44.01 290.3 44.3 290.22 44.63 290.05 45.34 289.85 46.31 289.6 47.54 289.36 48.77 289.09 50.16 288.8 51.72 288.51 53.28 288.22 54.93 287.92 56.66 287.62 58.4 287.33 60.13 287.06 61.85 286.37 65.9 285.68 70.25 284.97 74.89 285.79 74.43 286.68 73.86 287.63 73.17 288.59 72.49 289.66 71.57 290.83 70.42 292.01 69.28 293.32 67.83 294.77 66.1 296.22 64.36 297.85 62.19 299.65 59.6L301.62 68.7C301.13 69.55 300.49 70.42 299.71 71.31 298.93 72.19 298.07 73.08 297.13 73.97 296.18 74.86 295.2 75.72 294.17 76.56 293.15 77.39 292.14 78.18 291.16 78.91 288.84 80.66 286.33 82.36 283.65 84 283.13 86.93 282.52 89.78 281.81 92.55 281.1 95.33 280.26 97.92 279.29 100.34 278.32 102.76 277.21 104.99 275.96 107.01 274.72 109.03 273.31 110.77 271.74 112.22 270.17 113.67 268.41 114.8 266.47 115.6 264.53 116.41 262.38 116.81 260.03 116.81 259.1 116.81 258.09 116.72 257.01 116.53 255.93 116.33 254.94 115.95 254.02 115.38 253.1 114.8 252.35 113.98 251.74 112.92 251.14 111.85 250.84 110.43 250.84 108.65 250.84 107.42 251.16 106.03 251.79 104.49 252.41 102.94 253.28 101.32 254.37 99.61 255.46 97.9 256.76 96.12 258.27 94.27 259.77 92.43 261.4 90.59 263.17 88.76 264.93 86.93 266.78 85.12 268.7 83.34 270.63 81.57 272.58 79.87 274.55 78.26L275.66 74.44C274.18 75.76 272.64 76.82 271.04 77.62 269.44 78.43 267.89 78.83 266.39 78.83 265.07 78.83 263.8 78.57 262.55 78.03 261.31 77.5 260.21 76.73 259.25 75.74 258.69 75.15 258.19 74.48 257.76 73.74ZM235.22 41.45C234.77 41.82 234.29 42 233.78 42L218.03 42C217.24 43.09 216.44 44.17 215.63 45.22 214.82 46.27 214.08 47.22 213.39 48.07 213.29 49.77 213.19 51.43 213.11 53.07 213.08 53.79 213.05 54.52 213.03 55.27 213 56.02 212.97 56.77 212.94 57.5 212.92 58.24 212.9 58.95 212.88 59.64 212.87 60.32 212.86 60.95 212.86 61.52 212.86 63 213 64.24 213.27 65.26 213.54 66.27 213.94 67.09 214.46 67.74 214.98 68.38 215.62 68.84 216.37 69.13 217.12 69.42 217.96 69.56 218.89 69.56 219.46 69.56 220.18 69.43 221.04 69.15 221.91 68.88 222.85 68.5 223.87 68.02 224.9 67.55 225.98 66.98 227.11 66.32 228.25 65.67 229.37 64.95 230.48 64.17 231.58 63.39 232.64 62.57 233.66 61.71 233.84 61.55 234.02 61.39 234.2 61.23 233.95 59.18 233.82 57.07 233.82 54.88 233.82 52.45 234 49.8 234.35 46.94 234.58 45.15 234.87 43.31 235.22 41.45ZM107.7 27.89C109.31 23.71 110.48 20.18 111.2 17.31 111.93 14.44 112.29 12.32 112.29 10.95 112.29 8.87 112.02 7.83 111.47 7.83 110.76 7.83 109.71 9 108.31 11.32 106.92 13.64 105.28 17.02 103.39 21.45 102.93 22.96 102.5 24.51 102.1 26.13 101.7 27.74 101.35 29.35 101.03 30.95 100.72 32.55 100.43 34.12 100.17 35.66 99.91 37.21 99.69 38.68 99.49 40.07 99.03 43.33 98.67 46.51 98.43 49.63 99.17 47.91 99.97 46.03 100.85 44.01 101.72 41.99 102.58 39.98 103.43 38 104.28 36.02 105.08 34.15 105.83 32.38 106.58 30.62 107.21 29.12 107.7 27.89ZM140.35 59.47C141.33 59.47 142.4 59.22 143.57 58.71 144.73 58.21 145.81 57.56 146.81 56.77 147.8 55.97 148.64 55.11 149.33 54.18 150.01 53.25 150.35 52.35 150.35 51.47 150.35 50.24 150.13 49.23 149.68 48.44 149.23 47.65 148.67 47.25 148.02 47.25 146.84 47.25 145.83 47.47 145 47.91 144.17 48.34 143.47 48.91 142.91 49.61 142.35 50.31 141.9 51.1 141.56 51.99 141.21 52.88 140.95 53.77 140.78 54.67 140.6 55.58 140.48 56.45 140.43 57.3 140.37 58.15 140.35 58.87 140.35 59.47ZM172.09 65.46C172.09 66.14 172.14 66.81 172.24 67.45 172.33 68.09 172.5 68.67 172.75 69.17 172.99 69.68 173.32 70.09 173.73 70.4 174.14 70.72 174.66 70.88 175.29 70.88 176.3 70.88 177.22 70.44 178.04 69.56 178.86 68.69 179.57 67.63 180.17 66.4 180.77 65.17 181.26 63.9 181.63 62.59 182 61.28 182.24 60.18 182.35 59.31L184.85 47.25C183.73 47.25 182.63 47.53 181.57 48.09 180.5 48.65 179.5 49.41 178.55 50.37 177.61 51.32 176.74 52.42 175.95 53.65 175.15 54.88 174.47 56.17 173.9 57.52 173.32 58.88 172.88 60.24 172.56 61.61 172.25 62.97 172.09 64.26 172.09 65.46ZM223.28 17.64C223.28 17.34 223.26 17 223.22 16.63 223.18 16.26 223.09 15.91 222.95 15.59 222.81 15.26 222.6 14.98 222.32 14.77 222.03 14.55 221.63 14.44 221.11 14.44 220.39 14.44 219.68 15.07 218.95 16.32 218.23 17.58 217.53 19.19 216.86 21.14 216.19 23.1 215.56 25.25 214.97 27.6 214.39 29.96 213.85 32.24 213.35 34.45 213.76 34.51 214.17 34.56 214.58 34.6 214.99 34.64 215.42 34.69 215.86 34.74 216.68 33.35 217.53 31.83 218.42 30.21 219.31 28.58 220.11 26.98 220.82 25.41 221.53 23.84 222.12 22.37 222.58 21 223.05 19.63 223.28 18.51 223.28 17.64ZM244.32 45.94C245.55 43.75 246.86 41.29 248.24 38.55 249.62 35.82 250.92 33 252.15 30.11 253.38 27.21 254.45 24.32 255.35 21.43 256.26 18.55 256.83 15.86 257.08 13.37 257.08 12.58 257.06 11.9 257.01 11.34 256.97 10.78 256.84 10.5 256.63 10.5 255.83 10.5 254.98 11.01 254.06 12.04 253.15 13.06 252.23 14.45 251.31 16.2 250.4 17.95 249.52 19.99 248.69 22.31 247.85 24.64 247.11 27.11 246.45 29.74 245.8 32.36 245.28 35.06 244.89 37.84 244.51 40.61 244.32 43.31 244.32 45.94ZM260.52 108.94C261.67 108.94 262.76 108.6 263.78 107.93 264.81 107.26 265.75 106.38 266.61 105.29 267.47 104.19 268.26 102.95 268.97 101.55 269.68 100.16 270.31 98.73 270.86 97.27 271.4 95.81 271.87 94.38 272.25 92.98 272.63 91.59 272.94 90.34 273.15 89.25 272.09 89.96 271 90.81 269.89 91.79 268.79 92.78 267.71 93.84 266.65 94.97 265.6 96.11 264.6 97.28 263.66 98.48 262.72 99.68 261.89 100.84 261.18 101.94 260.47 103.05 259.91 104.08 259.5 105.04 259.09 106 258.88 106.79 258.88 107.42 258.88 108.43 259.43 108.94 260.52 108.94Z" id="Wheatly" fill="#F8F8F8"/>
</svg>
