<?xml version="1.0" encoding="UTF-8" standalone="no"?>
<svg width="304px" height="121px" viewBox="0 0 304 121" version="1.1" xmlns="http://www.w3.org/2000/svg" xmlns:xlink="http://www.w3.org/1999/xlink" xmlns:sketch="http://www.bohemiancoding.com/sketch/ns">
    <!-- Generator: Sketch 3.5.2 (25235) - http://www.bohemiancoding.com/sketch -->
    <title>Wheatly</title>
    <desc>Created with Sketch.</desc>
    <defs>
        <filter x="-50%" y="-50%" width="200%" height="200%" filterUnits="objectBoundingBox" id="filter-1">
            <feOffset dx="0" dy="2" in="SourceAlpha" result="shadowOffsetOuter1"></feOffset>
            <feGaussianBlur stdDeviation="1" in="shadowOffsetOuter1" result="shadowBlurOuter1"></feGaussianBlur>
            <feColorMatrix values="0 0 0 0 0   0 0 0 0 0   0 0 0 0 0  0 0 0 0.529715806 0" in="shadowBlurOuter1" type="matrix" result="shadowMatrixOuter1"></feColorMatrix>
            <feMerge>
                <feMergeNode in="shadowMatrixOuter1"></feMergeNode>
                <feMergeNode in="SourceGraphic"></feMergeNode>
            </feMerge>
        </filter>
    </defs>
    <path d="M257.757481,73.7430159 C257.54383,73.8686261 257.330399,73.9926989 257.117188,74.1152344 C256.07812,74.689456 255.004888,75.2568331 253.897461,75.8173828 C252.790034,76.3779325 251.675787,76.8769509 250.554688,77.3144531 C249.433588,77.7519553 248.339849,78.1005846 247.273438,78.3603516 C246.207026,78.6201185 245.208989,78.75 244.279297,78.75 C242.802727,78.75 241.428717,78.1005924 240.157227,76.8017578 C238.885736,75.5029232 237.778325,73.7597766 236.834961,71.5722656 C236.58098,70.9833239 236.341864,70.3691143 236.117615,69.7296354 C233.608769,71.1914437 231.36646,72.4755637 229.390625,73.5820312 C227.339833,74.7304745 225.514656,75.6874962 223.915039,76.453125 C222.315422,77.2187538 220.893561,77.7929668 219.649414,78.1757812 C218.405267,78.5585957 217.277349,78.75 216.265625,78.75 C214.18749,78.75 212.355477,78.1211 210.769531,76.8632812 C209.183586,75.6054625 207.857427,73.7939571 206.791016,71.4287109 C206.575128,70.9498833 206.370167,70.4506057 206.176133,69.9308774 C205.717103,70.4984946 205.19062,71.1139815 204.59668,71.7773438 C203.54394,72.9531309 202.361335,74.0742134 201.048828,75.140625 C199.736322,76.2070366 198.328133,77.1093713 196.824219,77.8476562 C195.320305,78.5859412 193.816414,78.9550781 192.3125,78.9550781 C190.507803,78.9550781 189.003912,78.3740292 187.800781,77.2119141 C186.59765,76.0497989 185.558598,74.3613392 184.683594,72.1464844 C184.02734,72.9121132 183.220708,73.6914023 182.263672,74.484375 C181.306636,75.2773477 180.260748,75.995114 179.125977,76.6376953 C177.991205,77.2802767 176.8086,77.8066386 175.578125,78.2167969 C174.34765,78.6269552 173.117194,78.8320312 171.886719,78.8320312 C170.574212,78.8320312 169.295905,78.5654324 168.051758,78.0322266 C166.807611,77.4990208 165.707036,76.7334034 164.75,75.7353516 C163.91957,74.8693322 163.233264,73.8386245 162.691065,72.6432045 C161.706803,73.3070089 160.663629,73.9617436 159.561523,74.6074219 C158.208001,75.4003946 156.78614,76.1044891 155.295898,76.7197266 C153.805657,77.334964 152.26075,77.8271466 150.661133,78.1962891 C149.061515,78.5654315 147.441414,78.75 145.800781,78.75 C143.230456,78.75 140.981455,78.2851609 139.053711,77.3554688 C137.125967,76.4257766 135.519538,75.1748125 134.234375,73.6025391 C133.725009,72.9793779 133.266115,72.3175624 132.857694,71.617089 C132.149724,72.1538529 131.37132,72.7199616 130.522461,73.3154297 C129.606441,73.958011 128.61524,74.6074186 127.548828,75.2636719 C126.482417,75.9199252 125.409185,76.500974 124.329102,77.0068359 C123.249018,77.5126978 122.168951,77.9296859 121.088867,78.2578125 C120.008784,78.5859391 118.976567,78.75 117.992188,78.75 C116.488274,78.75 115.182623,78.3466837 114.075195,77.5400391 C112.967768,76.7333944 112.058597,75.708014 111.347656,74.4638672 C110.636715,73.2197203 110.103517,71.8593824 109.748047,70.3828125 C109.392576,68.9062426 109.214844,67.5117253 109.214844,66.1992188 C109.214844,65.3242144 109.331054,64.3466851 109.563477,63.2666016 C109.7959,62.186518 110.083006,61.0996148 110.424805,60.0058594 C110.766603,58.9121039 111.149412,57.8457083 111.573242,56.8066406 C111.997072,55.7675729 112.393553,54.8378947 112.762695,54.0175781 C113.131838,53.1972615 113.453124,52.5273463 113.726562,52.0078125 C114.000001,51.4882787 114.177734,51.1875004 114.259766,51.1054688 L113.398438,50.9824219 C112.933591,51.2832046 112.147466,52.048822 111.040039,53.2792969 C109.932612,54.5097718 108.681648,56.0615141 107.287109,57.9345703 C105.892571,59.8076266 104.450203,61.9130742 102.959961,64.2509766 C101.469719,66.5888789 100.123053,69.0019407 98.9199219,71.4902344 C98.3183564,72.7207093 97.8261738,73.7939407 97.4433594,74.7099609 C97.060545,75.6259811 96.6845722,76.3779267 96.3154297,76.9658203 C95.9462872,77.5537139 95.5429709,77.9980454 95.1054688,78.2988281 C94.6679666,78.5996109 94.1074253,78.75 93.4238281,78.75 C92.5214799,78.75 91.8105495,78.490237 91.2910156,77.9707031 C90.7714818,77.4511693 90.3750014,76.7607465 90.1015625,75.8994141 C89.8281236,75.0380816 89.650391,74.0605523 89.5683594,72.9667969 C89.5083818,72.1670959 89.4703309,71.3527864 89.4542062,70.5238552 C88.928671,70.9173586 88.3993396,71.2805003 87.8662109,71.6132812 C85.7197158,72.9531317 83.7031344,73.6230469 81.8164062,73.6230469 C80.914058,73.6230469 80.0664102,73.4794936 79.2734375,73.1923828 C78.4804648,72.905272 77.7763703,72.4609405 77.1611328,71.859375 C76.5458954,71.2578095 76.0332052,70.4785204 75.6230469,69.5214844 C75.2128886,68.5644483 74.9257821,67.4296941 74.7617187,66.1171875 C73.3945244,68.660169 71.9248125,70.9501851 70.3525391,72.9873047 C68.7802656,75.0244242 67.1123135,76.760735 65.3486328,78.1962891 C63.5849521,79.6318431 61.7392675,80.7392539 59.8115234,81.5185547 C57.8837794,82.2978555 55.8945415,82.6875 53.84375,82.6875 C51.2460808,82.6875 49.038095,82.0039131 47.2197266,80.6367188 C45.4013581,79.2695244 43.9248104,77.410168 42.7900391,75.0585938 C41.6552678,72.7070195 40.8281276,69.9453284 40.3085937,66.7734375 C39.7890599,63.6015466 39.5292969,60.2246273 39.5292969,56.6425781 C39.5292969,55.3300716 39.5976556,54.0996151 39.734375,52.9511719 C39.8710944,51.8027286 39.9804683,50.7773483 40.0625,49.875 C39.0781201,56.1094062 37.8408278,61.3251743 36.3505859,65.5224609 C34.8603441,69.7197475 33.1103616,73.089831 31.1005859,75.6328125 C29.0908103,78.175794 26.7939582,79.9872993 24.2099609,81.0673828 C21.6259636,82.1474663 18.7617345,82.6875 15.6171875,82.6875 C13.812491,82.6875 12.089852,82.0927794 10.4492187,80.9033203 C8.80858555,79.7138612 7.36621716,77.9433711 6.12207031,75.5917969 C4.87792347,73.2402226 3.87988657,70.293963 3.12792969,66.7529297 C2.3759728,63.2118964 2,59.0761955 2,54.3457031 C2,51.4472511 2.16406086,48.4736481 2.4921875,45.4248047 C2.82031414,42.3759613 3.29198911,39.3203278 3.90722656,36.2578125 C4.52246401,33.1952972 5.28124549,30.1601713 6.18359375,27.1523438 C7.08594201,24.1445162 8.11132238,21.2187642 9.25976562,18.375 C9.94336279,16.7890546 10.6269497,15.5517623 11.3105469,14.6630859 C11.994144,13.7744096 12.6914027,13.1181662 13.4023437,12.6943359 C14.1132848,12.2705057 14.8310511,12.0175785 15.5556641,11.9355469 C16.2802771,11.8535152 17.0117151,11.8125 17.75,11.8125 C18.3515655,11.8125 18.898435,11.8535152 19.390625,11.9355469 C19.882815,12.0175785 20.299803,12.1884753 20.6416016,12.4482422 C20.9834001,12.7080091 21.2431632,13.077146 21.4208984,13.5556641 C21.5986337,14.0341821 21.6875,14.6835896 21.6875,15.5039062 C21.6875,16.4335984 21.4619163,17.8076081 21.0107422,19.6259766 C20.5595681,21.444345 19.9921909,23.5429569 19.3085937,25.921875 C18.6249966,28.3007931 17.8867227,30.8847517 17.09375,33.6738281 C16.3007773,36.4629046 15.5625034,39.2929544 14.8789062,42.1640625 C14.1953091,45.0351706 13.6279319,47.8583846 13.1767578,50.6337891 C12.7255837,53.4091936 12.5,55.9863162 12.5,58.3652344 C12.5,60.3066503 12.6298815,62.1181557 12.8896484,63.7998047 C13.1494154,65.4814537 13.5527316,66.9443297 14.0996094,68.1884766 C14.6464871,69.4326234 15.330074,70.4101527 16.1503906,71.1210938 C16.9707072,71.8320348 17.9414006,72.1875 19.0625,72.1875 C20.1835994,72.1875 21.2705025,71.8593783 22.3232422,71.203125 C23.3759818,70.5468717 24.3945263,69.644537 25.3789062,68.4960938 C26.3632862,67.3476505 27.3066361,65.9804767 28.2089844,64.3945312 C29.1113326,62.8085858 29.979488,61.0927827 30.8134766,59.2470703 C31.6474651,57.401358 32.4335901,55.4599711 33.171875,53.4228516 C33.9101599,51.385732 34.6074186,49.3281354 35.2636719,47.25 C37.5605584,39.9218384 39.5976474,31.5957497 41.375,22.2714844 C41.7031266,20.7675706 42.0927712,19.5097707 42.5439453,18.4980469 C42.9951194,17.4863231 43.5351531,16.6796905 44.1640625,16.078125 C44.7929719,15.4765595 45.5244099,15.0527356 46.3583984,14.8066406 C47.192387,14.5605456 48.1562445,14.4375 49.25,14.4375 C50.2890677,14.4375 51.1435513,14.5332022 51.8134766,14.7246094 C52.4834018,14.9160166 53.0165996,15.1757796 53.4130859,15.5039062 C53.8095723,15.8320329 54.0898429,16.2285133 54.2539062,16.6933594 C54.4179696,17.1582054 54.5,17.6777315 54.5,18.2519531 C54.5,18.4433603 54.3906261,19.243157 54.171875,20.6513672 C53.9531239,22.0595774 53.6728533,23.8642468 53.3310547,26.0654297 C52.9892561,28.2666126 52.6201192,30.7617048 52.2236328,33.5507812 C51.8271465,36.3398577 51.4580095,39.2040869 51.1162109,42.1435547 C50.7744124,45.0830225 50.4941417,47.9882669 50.2753906,50.859375 C50.0566395,53.7304831 49.9472656,56.3691286 49.9472656,58.7753906 C49.9472656,61.2363404 50.0361319,63.4579979 50.2138672,65.4404297 C50.3916025,67.4228615 50.6923807,69.1113212 51.1162109,70.5058594 C51.5400412,71.9003976 52.0937466,72.9667932 52.7773437,73.7050781 C53.4609409,74.4433631 54.3085887,74.8125 55.3203125,74.8125 C57.0703213,74.8125 58.6630788,74.1289131 60.0986328,72.7617188 C61.5341869,71.3945244 62.8466737,69.5693474 64.0361328,67.2861328 C65.2255919,65.0029183 66.2919875,62.3574369 67.2353516,59.3496094 C68.1787157,56.3417818 69.0126917,53.197282 69.7373047,49.9160156 C70.4619177,46.6347492 71.0908176,43.3261886 71.6240234,39.9902344 C72.1572292,36.6542802 72.6015607,33.5029445 72.9570312,30.5361328 C73.3125018,27.5693211 73.5927724,24.9033321 73.7978516,22.5380859 C74.0029307,20.1728397 74.146484,18.3203192 74.2285156,16.9804688 C74.3105473,15.5859305 74.5634744,14.464848 74.9873047,13.6171875 C75.4111349,12.769527 75.9511686,12.1132836 76.6074219,11.6484375 C77.2636752,11.1835914 78.0087849,10.8759773 78.8427734,10.7255859 C79.676762,10.5751946 80.5312456,10.5 81.40625,10.5 C82.0898472,10.5 82.7119113,10.5751946 83.2724609,10.7255859 C83.8330106,10.8759773 84.3183573,11.1357403 84.7285156,11.5048828 C85.1386739,11.8740253 85.4531239,12.3662079 85.671875,12.9814453 C85.8906261,13.5966828 86,14.3828077 86,15.3398438 C86,17.9922008 85.8291033,20.8564299 85.4873047,23.9326172 C85.1455061,27.0088044 84.7216822,30.0917814 84.2158203,33.1816406 C83.7099584,36.2714998 83.1630889,39.2792822 82.5751953,42.2050781 C81.9873017,45.130874 81.4404322,47.7695195 80.9345703,50.1210938 C80.4287084,52.472668 80.0048845,54.4550701 79.6630859,56.0683594 C79.3212874,57.6816487 79.1503906,58.7070291 79.1503906,59.1445312 C79.1503906,60.2109428 79.3007797,61.1201134 79.6015625,61.8720703 C79.9023453,62.6240272 80.3056615,63.2460913 80.8115234,63.7382812 C81.3173853,64.2304712 81.9189418,64.5859364 82.6162109,64.8046875 C83.31348,65.0234386 84.0585898,65.1328125 84.8515625,65.1328125 C85.6445352,65.1328125 86.4580036,64.948244 87.2919922,64.5791016 C88.0553336,64.2412291 88.7900305,63.7830988 89.4961015,63.2046987 C89.4995082,62.9429656 89.5030864,62.6764905 89.5068359,62.4052734 C89.5478518,59.4384617 89.6777333,56.1504087 89.8964844,52.5410156 C90.1152355,48.9316226 90.4296854,45.1308793 90.8398438,41.1386719 C91.2500021,37.1464644 91.8310509,33.2021679 92.5830078,29.3056641 C93.3349647,25.4091602 94.2783146,21.6904474 95.4130859,18.1494141 C96.5478572,14.6083807 97.9287028,11.4912244 99.5556641,8.79785156 C101.182625,6.10447872 103.089833,3.96485168 105.277344,2.37890625 C107.464855,0.79296082 109.980455,0 112.824219,0 C114.300789,0 115.510737,0.218747812 116.454102,0.65625 C117.397466,1.09375219 118.149411,1.70898041 118.709961,2.50195312 C119.270511,3.29492584 119.660155,4.24511165 119.878906,5.35253906 C120.097657,6.45996647 120.207031,7.69725879 120.207031,9.06445312 C120.207031,11.0879007 119.919925,13.3300658 119.345703,15.7910156 C118.771482,18.2519654 118.0127,20.8085805 117.069336,23.4609375 C116.125972,26.1132945 115.05274,28.7997911 113.849609,31.5205078 C112.646478,34.2412245 111.416022,36.87987 110.158203,39.4365234 C108.900384,41.9931768 107.663092,44.4062387 106.446289,46.6757812 C105.229486,48.9453238 104.156255,50.9413976 103.226562,52.6640625 L104.046875,53.2382812 C105.167974,51.7617114 106.425774,50.1757897 107.820312,48.4804688 C109.214851,46.7851478 110.664055,45.206062 112.167969,43.7431641 C113.671883,42.2802661 115.168938,41.0634814 116.65918,40.0927734 C118.149422,39.1220655 119.550775,38.6367188 120.863281,38.6367188 C121.191408,38.6367188 121.560545,38.6982416 121.970703,38.8212891 C122.380861,38.9443366 122.770506,39.1699202 123.139648,39.4980469 C123.508791,39.8261735 123.816405,40.2841767 124.0625,40.8720703 C124.308595,41.4599639 124.431641,42.2187454 124.431641,43.1484375 C124.431641,45.0078218 124.171878,46.8193271 123.652344,48.5830078 C123.13281,50.3466885 122.565433,52.1103427 121.950195,53.8740234 C121.334958,55.6377041 120.774417,57.4355377 120.268555,59.2675781 C119.762693,61.0996185 119.509766,63.0136619 119.509766,65.0097656 C119.509766,66.1035211 119.673826,66.9785123 120.001953,67.6347656 C120.33008,68.2910189 120.753904,68.6191406 121.273438,68.6191406 C121.929691,68.6191406 122.626949,68.4824232 123.365234,68.2089844 C124.103519,67.9355455 124.841793,67.5800803 125.580078,67.1425781 C126.318363,66.7050759 127.042965,66.2060575 127.753906,65.6455078 C128.464847,65.0849581 129.134762,64.5039093 129.763672,63.9023437 C129.987932,63.6943938 130.211583,63.4821882 130.434626,63.2657268 C130.397479,62.7319083 130.378906,62.1921611 130.378906,61.6464844 C130.378906,60.1152267 130.529295,58.4951257 130.830078,56.7861328 C131.130861,55.0771399 131.588864,53.402352 132.204102,51.7617188 C132.819339,50.1210855 133.591792,48.5556715 134.521484,47.0654297 C135.451177,45.5751879 136.53808,44.262701 137.782227,43.1279297 C139.026373,41.9931584 140.420891,41.0908237 141.96582,40.4208984 C143.51075,39.7509732 145.226553,39.4160156 147.113281,39.4160156 C148.644539,39.4160156 150.0664,39.6621069 151.378906,40.1542969 C152.691413,40.6464868 153.833003,41.3369096 154.803711,42.2255859 C155.774419,43.1142623 156.5332,44.1874937 157.080078,45.4453125 C157.626956,46.7031313 157.900391,48.1113203 157.900391,49.6699219 C157.900391,51.3652429 157.483403,53.0605384 156.649414,54.7558594 C155.815426,56.4511804 154.660164,58.0507737 153.183594,59.5546875 C151.707024,61.0586013 149.950205,62.3984316 147.913086,63.5742188 C145.875966,64.7500059 143.667981,65.6660123 141.289062,66.3222656 C141.699221,67.0605506 142.102537,67.6757788 142.499023,68.1679688 C142.89551,68.6601587 143.298826,69.0429674 143.708984,69.3164062 C144.119143,69.5898451 144.549802,69.7812495 145.000977,69.890625 C145.452151,70.0000005 145.937497,70.0546875 146.457031,70.0546875 C148.097664,70.0546875 149.827139,69.7265658 151.645508,69.0703125 C153.463876,68.4140592 155.234366,67.5937549 156.957031,66.609375 C158.679696,65.6249951 160.306633,64.5517636 161.837891,63.3896484 C161.867735,63.3669987 161.897491,63.3443724 161.927159,63.3217694 C162.061886,62.5249817 162.237208,61.7204608 162.453125,60.9082031 C163.027347,58.7480361 163.820307,56.6357525 164.832031,54.5712891 C165.843755,52.5068256 167.040032,50.5586029 168.420898,48.7265625 C169.801765,46.8945221 171.312492,45.2949287 172.953125,43.9277344 C174.593758,42.56054 176.323233,41.4736368 178.141602,40.6669922 C179.95997,39.8603475 181.812491,39.4570312 183.699219,39.4570312 C184.328128,39.4570312 184.820311,39.5800769 185.175781,39.8261719 C185.531252,40.0722669 185.825194,40.3525375 186.057617,40.6669922 C186.29004,40.9814469 186.515624,41.289061 186.734375,41.5898438 C186.953126,41.8906265 187.226561,42.1093743 187.554688,42.2460938 C187.882814,42.3828132 188.217772,42.4716795 188.55957,42.5126953 C188.901369,42.5537111 189.249998,42.5742188 189.605469,42.5742188 C189.906252,42.5742188 190.213866,42.5673829 190.52832,42.5537109 C190.842775,42.540039 191.150389,42.5332031 191.451172,42.5332031 C191.86133,42.5332031 192.244139,42.5742183 192.599609,42.65625 C192.95508,42.7382817 193.26953,42.9160143 193.542969,43.1894531 C193.816408,43.462892 194.02832,43.8457007 194.178711,44.3378906 C194.329102,44.8300806 194.404297,45.4999958 194.404297,46.3476562 C194.404297,47.6601628 194.267579,49.1162029 193.994141,50.7158203 C193.720702,52.3154377 193.419924,53.9560463 193.091797,55.6376953 C192.76367,57.3193443 192.462892,59.0009682 192.189453,60.6826172 C191.916014,62.3642662 191.779297,63.9570237 191.779297,65.4609375 C191.779297,66.7461002 191.895507,67.7509729 192.12793,68.4755859 C192.360353,69.2001989 192.859371,69.5625 193.625,69.5625 C194.199222,69.5625 194.800778,69.4189467 195.429688,69.1318359 C196.058597,68.8447251 196.694333,68.4687523 197.336914,68.0039062 C197.979495,67.5390602 198.622067,67.0126983 199.264648,66.4248047 C199.90723,65.8369111 200.515622,65.2285188 201.089844,64.5996094 C202.094453,63.4924885 203.106738,62.2777748 204.126714,60.9554471 C203.770101,58.0786268 203.591797,54.9183683 203.591797,51.4746094 C203.591797,49.8339762 203.660156,48.0839937 203.796875,46.2246094 C203.933594,44.3652251 204.124999,42.5195404 204.371094,40.6875 C203.550777,40.5781245 202.915041,40.4755864 202.463867,40.3798828 C202.012693,40.2841792 201.534182,40.188477 201.02832,40.0927734 C200.522458,39.9970698 199.879887,39.8945318 199.100586,39.7851562 C198.321285,39.6757807 197.193367,39.5390633 195.716797,39.375 C195.060544,39.2929683 194.554689,39.1357433 194.199219,38.9033203 C193.843748,38.6708973 193.583985,38.3974625 193.419922,38.0830078 C193.255859,37.7685531 193.160156,37.4404314 193.132812,37.0986328 C193.105469,36.7568342 193.091797,36.4628919 193.091797,36.2167969 C193.091797,35.6699191 193.358396,35.2529311 193.891602,34.9658203 C194.424807,34.6787095 195.108394,34.4667976 195.942383,34.3300781 C196.776371,34.1933587 197.692378,34.1181641 198.69043,34.1044922 C199.688482,34.0908202 200.645503,34.0976561 201.561523,34.125 C202.477544,34.1523439 203.297848,34.1728515 204.022461,34.1865234 C204.747074,34.2001954 205.246092,34.1796878 205.519531,34.125 C206.257816,30.4335753 207.19433,26.8584157 208.329102,23.3994141 C209.463873,19.9404124 210.735345,16.8642713 212.143555,14.1708984 C213.551765,11.4775256 215.089835,9.31739095 216.757812,7.69042969 C218.42579,6.06346843 220.175772,5.25 222.007812,5.25 C223.1836,5.25 224.256831,5.57812172 225.227539,6.234375 C226.198247,6.89062828 227.025387,7.76561953 227.708984,8.859375 C228.392582,9.95313047 228.918943,11.231438 229.288086,12.6943359 C229.657228,14.1572339 229.841797,15.6816327 229.841797,17.2675781 C229.841797,18.6074286 229.650393,20.0224535 229.267578,21.5126953 C228.884764,23.0029371 228.365238,24.5205001 227.708984,26.0654297 C227.052731,27.6103593 226.280278,29.1757733 225.391602,30.7617188 C224.502925,32.3476642 223.566411,33.9199141 222.582031,35.4785156 C222.828126,35.5058595 223.238278,35.5263671 223.8125,35.5400391 C224.386722,35.553711 225.049801,35.5742186 225.801758,35.6015625 C226.553715,35.6289064 227.367183,35.6630857 228.242188,35.7041016 C229.117192,35.7451174 229.96484,35.7792967 230.785156,35.8066406 C231.605473,35.8339845 232.37109,35.861328 233.082031,35.8886719 C233.792972,35.9160158 234.380857,35.9433592 234.845703,35.9707031 C235.392581,35.998047 235.789061,36.2714818 236.035156,36.7910156 C236.077063,36.8794863 236.115402,36.9719214 236.150173,37.0683208 C236.782254,34.3752925 237.51637,31.6715505 238.352539,28.9570313 C239.295903,25.8945159 240.362299,22.9550922 241.551758,20.1386719 C242.741217,17.3222515 244.033196,14.6904419 245.427734,12.2431641 C246.822273,9.7958862 248.285149,7.66309503 249.816406,5.84472656 C251.347664,4.0263581 252.947257,2.59766145 254.615234,1.55859375 C256.283211,0.519526055 257.978507,0 259.701172,0 C260.876959,0 261.847652,0.266598896 262.613281,0.799804688 C263.37891,1.33301048 263.980467,2.037105 264.417969,2.91210938 C264.855471,3.78711375 265.163085,4.77831478 265.34082,5.88574219 C265.518556,6.9931696 265.607422,8.12108801 265.607422,9.26953125 C265.607422,11.8398566 265.31348,14.4579945 264.725586,17.1240234 C264.137692,19.7900524 263.344732,22.4697131 262.34668,25.1630859 C261.348628,27.8564588 260.193366,30.5566271 258.880859,33.2636719 C257.568353,35.9707167 256.201179,38.6572132 254.779297,41.3232422 C253.357415,43.9892711 251.928718,46.6142449 250.493164,49.1982422 C249.05761,51.7822395 247.710944,54.3046752 246.453125,56.765625 C246.316406,57.0390639 246.172852,57.3945291 246.022461,57.8320312 C245.87207,58.2695334 245.728516,58.7412084 245.591797,59.2470703 C245.455077,59.7529322 245.31836,60.2929659 245.181641,60.8671875 C245.044921,61.4414091 244.935547,62.0019504 244.853516,62.5488281 L244.853516,63.1230469 C244.853516,63.8339879 244.92871,64.5244107 245.079102,65.1943359 C245.229493,65.8642612 245.414061,66.4658176 245.632812,66.9990234 C245.851564,67.5322292 246.083983,67.9560531 246.330078,68.2705078 C246.576173,68.5849625 246.808593,68.7421875 247.027344,68.7421875 C247.546878,68.7421875 248.141598,68.6328136 248.811523,68.4140625 C249.481449,68.1953114 250.192379,67.901369 250.944336,67.5322266 C251.696293,67.1630841 252.468746,66.7392602 253.261719,66.2607422 C254.054691,65.7822242 254.820309,65.2968775 255.558594,64.8046875 C255.75465,64.6739835 255.951768,64.5409776 256.149948,64.4056697 C256.206104,63.0908306 256.302931,61.8429816 256.44043,60.6621094 C256.672853,58.6660056 257.00781,56.765634 257.445312,54.9609375 C257.882815,53.156241 258.429684,51.4130943 259.085938,49.7314453 C259.742191,48.0497963 260.494136,46.3476649 261.341797,44.625 C261.970706,43.3945251 262.873041,42.458011 264.048828,41.8154297 C265.224615,41.1728483 266.373041,40.8515625 267.494141,40.8515625 C268.451177,40.8515625 269.271481,41.0908179 269.955078,41.5693359 C270.638675,42.047854 270.980469,42.7929637 270.980469,43.8046875 C270.980469,44.1054703 270.946289,44.433592 270.87793,44.7890625 C270.80957,45.144533 270.69336,45.5273417 270.529297,45.9375 C270.037107,47.1953188 269.55176,48.6787024 269.073242,50.3876953 C268.594724,52.0966882 268.1709,53.8466707 267.801758,55.6376953 C267.432615,57.4287199 267.138673,59.1855383 266.919922,60.9082031 C266.701171,62.630868 266.591797,64.1484309 266.591797,65.4609375 C266.591797,66.1445347 266.639648,66.807614 266.735352,67.4501953 C266.831055,68.0927767 267.001952,68.6669897 267.248047,69.1728516 C267.494142,69.6787135 267.822264,70.0888656 268.232422,70.4033203 C268.64258,70.717775 269.162106,70.875 269.791016,70.875 C270.802739,70.875 271.718746,70.4375044 272.539062,69.5625 C273.359379,68.6874956 274.070309,67.6347718 274.671875,66.4042969 C275.273441,65.173822 275.758787,63.9023503 276.12793,62.5898438 C276.497072,61.2773372 276.736328,60.1835981 276.845703,59.3085938 L279.716797,47.25 C279.935548,46.3203079 280.325193,45.4931677 280.885742,44.7685547 C281.446292,44.0439417 282.088864,43.4355493 282.813477,42.9433594 C283.53809,42.4511694 284.296871,42.0820325 285.089844,41.8359375 C285.882816,41.5898425 286.634762,41.4667969 287.345703,41.4667969 C288.193364,41.4667969 288.904294,41.6513653 289.478516,42.0205078 C290.052737,42.3896503 290.339844,42.9706992 290.339844,43.7636719 C290.339844,44.0097669 290.298829,44.2968734 290.216797,44.625 C290.052734,45.3359411 289.847657,46.3066345 289.601562,47.5371094 C289.355468,48.7675843 289.088869,50.1621016 288.801758,51.7207031 C288.514647,53.2793047 288.220705,54.9267491 287.919922,56.6630859 C287.619139,58.3994227 287.332033,60.1288976 287.058594,61.8515625 C286.374997,65.8984577 285.677738,70.2460705 284.966797,74.8945312 C285.787113,74.4296852 286.675776,73.8554722 287.632812,73.171875 C288.589849,72.4882778 289.656244,71.5722714 290.832031,70.4238281 C292.007818,69.2753849 293.320305,67.8330165 294.769531,66.0966797 C296.218757,64.3603429 297.845694,62.1933724 299.650391,59.5957031 L301.619141,68.7011719 C301.126951,69.5488324 300.491215,70.4169877 299.711914,71.3056641 C298.932613,72.1943404 298.071294,73.0830034 297.12793,73.9716797 C296.184566,74.860356 295.2002,75.7216755 294.174805,76.5556641 C293.149409,77.3896526 292.144536,78.1757776 291.160156,78.9140625 C288.835926,80.6640713 286.333998,82.3593668 283.654297,84 C283.134763,86.9257959 282.519535,89.7763533 281.808594,92.5517578 C281.097653,95.3271623 280.256841,97.9247926 279.286133,100.344727 C278.315425,102.764661 277.208014,104.986318 275.963867,107.009766 C274.71972,109.033213 273.311531,110.769524 271.739258,112.21875 C270.166984,113.667976 268.410166,114.795894 266.46875,115.602539 C264.527334,116.409184 262.380871,116.8125 260.029297,116.8125 C259.099605,116.8125 258.094732,116.716798 257.014648,116.525391 C255.934565,116.333983 254.936528,115.951175 254.020508,115.376953 C253.104488,114.802732 252.345706,113.982427 251.744141,112.916016 C251.142575,111.849604 250.841797,110.427743 250.841797,108.650391 C250.841797,107.419916 251.156247,106.032234 251.785156,104.487305 C252.414066,102.942375 253.275385,101.315438 254.369141,99.6064453 C255.462896,97.8974524 256.761711,96.1201264 258.265625,94.2744141 C259.769539,92.4287017 261.403311,90.5898529 263.166992,88.7578125 C264.930673,86.9257721 266.776358,85.1211026 268.704102,83.34375 C270.631846,81.5663974 272.580068,79.8711018 274.548828,78.2578125 L275.65625,74.4433594 C274.17968,75.7558659 272.64161,76.8154257 271.041992,77.6220703 C269.442375,78.428715 267.890633,78.8320312 266.386719,78.8320312 C265.074212,78.8320312 263.795905,78.5654324 262.551758,78.0322266 C261.307611,77.4990208 260.207036,76.7334034 259.25,75.7353516 C258.686021,75.1472019 258.188516,74.4830925 257.757481,73.7430159 Z M235.218376,41.4483239 C234.772118,41.8161094 234.292428,42 233.779297,42 L218.029297,42 C217.236324,43.0937555 216.436527,44.1669869 215.629883,45.2197266 C214.823238,46.2724662 214.078128,47.222652 213.394531,48.0703125 C213.285156,49.7656335 213.189454,51.4335855 213.107422,53.0742188 C213.080078,53.7851598 213.052735,54.5165978 213.025391,55.2685547 C212.998047,56.0205116 212.970703,56.7656213 212.943359,57.5039062 C212.916015,58.2421912 212.895508,58.9531216 212.881836,59.6367188 C212.868164,60.3203159 212.861328,60.9492159 212.861328,61.5234375 C212.861328,63.0000074 212.998046,64.2441356 213.271484,65.2558594 C213.544923,66.2675832 213.941404,67.0947233 214.460938,67.7373047 C214.980471,68.379886 215.616207,68.8447251 216.368164,69.1318359 C217.120121,69.4189467 217.960933,69.5625 218.890625,69.5625 C219.464847,69.5625 220.182613,69.4257826 221.043945,69.1523438 C221.905278,68.8789049 222.848628,68.5029321 223.874023,68.0244141 C224.899419,67.545896 225.979487,66.9785189 227.114258,66.3222656 C228.249029,65.6660123 229.370112,64.9482461 230.477539,64.1689453 C231.584966,63.3896445 232.644526,62.5693402 233.65625,61.7080078 C233.840841,61.5508564 234.022245,61.3930228 234.200463,61.2345067 C233.947028,59.1842077 233.820312,57.0656841 233.820312,54.8789062 C233.820312,52.4453003 233.998045,49.799819 234.353516,46.9423828 C234.576972,45.1461371 234.865257,43.3147914 235.218376,41.4483239 Z M107.697266,27.890625 C109.310555,23.7070103 110.479489,20.1797019 111.204102,17.3085938 C111.928715,14.4374856 112.291016,12.3183662 112.291016,10.9511719 C112.291016,8.87303648 112.017581,7.83398438 111.470703,7.83398438 C110.759762,7.83398438 109.707038,8.99608213 108.3125,11.3203125 C106.917962,13.6445429 105.277353,17.0214622 103.390625,21.4511719 C102.925779,22.9550856 102.495119,24.5136638 102.098633,26.1269531 C101.702146,27.7402424 101.346681,29.3466717 101.032227,30.9462891 C100.717772,32.5459064 100.430665,34.1181563 100.170898,35.6630859 C99.9111315,37.2080155 99.6855478,38.6777274 99.4941406,40.0722656 C99.0292946,43.3261881 98.6738294,46.5117032 98.4277344,49.6289062 C99.1660193,47.9062414 99.9726519,46.0332132 100.847656,44.0097656 C101.722661,41.986318 102.58398,39.9834083 103.431641,38.0009766 C104.279301,36.0185448 105.079098,34.1455166 105.831055,32.3818359 C106.583012,30.6181552 107.205076,29.1210999 107.697266,27.890625 Z M140.345703,59.4726562 C141.330083,59.4726562 142.403315,59.2197291 143.56543,58.7138672 C144.727545,58.2080053 145.807612,57.5585977 146.805664,56.765625 C147.803716,55.9726523 148.644528,55.1113328 149.328125,54.1816406 C150.011722,53.2519485 150.353516,52.3496138 150.353516,51.4746094 C150.353516,50.2441345 150.127932,49.2324258 149.676758,48.4394531 C149.225584,47.6464804 148.671878,47.25 148.015625,47.25 C146.839838,47.25 145.834965,47.4687478 145.000977,47.90625 C144.166988,48.3437522 143.469729,48.9111293 142.90918,49.6083984 C142.34863,50.3056675 141.897463,51.0986284 141.555664,51.9873047 C141.213865,52.875981 140.954102,53.7714799 140.776367,54.6738281 C140.598632,55.5761764 140.482422,56.4511676 140.427734,57.2988281 C140.373047,58.1464886 140.345703,58.8710907 140.345703,59.4726562 Z M172.091797,65.4609375 C172.091797,66.1445347 172.139648,66.807614 172.235352,67.4501953 C172.331055,68.0927767 172.501952,68.6669897 172.748047,69.1728516 C172.994142,69.6787135 173.322264,70.0888656 173.732422,70.4033203 C174.14258,70.717775 174.662106,70.875 175.291016,70.875 C176.302739,70.875 177.218746,70.4375044 178.039062,69.5625 C178.859379,68.6874956 179.570309,67.6347718 180.171875,66.4042969 C180.773441,65.173822 181.258787,63.9023503 181.62793,62.5898438 C181.997072,61.2773372 182.236328,60.1835981 182.345703,59.3085938 L184.847656,47.25 C183.726557,47.25 182.632818,47.5302706 181.566406,48.0908203 C180.499995,48.65137 179.495122,49.4101515 178.551758,50.3671875 C177.608394,51.3242235 176.740238,52.4179626 175.947266,53.6484375 C175.154293,54.8789124 174.470706,56.1708917 173.896484,57.5244141 C173.322263,58.8779365 172.877931,60.2382744 172.563477,61.6054688 C172.249022,62.9726631 172.091797,64.2578065 172.091797,65.4609375 Z M223.279297,17.6367188 C223.279297,17.335936 223.258789,17.0009784 223.217773,16.6318359 C223.176758,16.2626935 223.087891,15.9140641 222.951172,15.5859375 C222.814452,15.2578109 222.60254,14.9843761 222.31543,14.765625 C222.028319,14.5468739 221.625003,14.4375 221.105469,14.4375 C220.394528,14.4375 219.676761,15.0664 218.952148,16.3242188 C218.227535,17.5820375 217.530277,19.1884668 216.860352,21.1435547 C216.190426,23.0986426 215.561526,25.2519414 214.973633,27.6035156 C214.385739,29.9550899 213.845706,32.2382702 213.353516,34.453125 C213.763674,34.5078128 214.173826,34.5556639 214.583984,34.5966797 C214.994143,34.6376955 215.417967,34.6855466 215.855469,34.7402344 C216.675785,33.3456962 217.530269,31.8349691 218.418945,30.2080078 C219.307622,28.5810466 220.107418,26.9814532 220.818359,25.4091797 C221.5293,23.8369062 222.117185,22.3671943 222.582031,21 C223.046877,19.6328057 223.279297,18.5117231 223.279297,17.6367188 Z M244.320312,45.9375 C245.550787,43.7499891 246.856438,41.2890762 248.237305,38.5546875 C249.618171,35.8202988 250.923822,33.0039207 252.154297,30.1054688 C253.384772,27.2070168 254.451167,24.3154441 255.353516,21.4306641 C256.255864,18.545884 256.830077,15.8593874 257.076172,13.3710938 C257.076172,12.578121 257.055664,11.90137 257.014648,11.3408203 C256.973633,10.7802706 256.843751,10.5 256.625,10.5 C255.832027,10.5 254.977544,11.0126902 254.061523,12.0380859 C253.145503,13.0634817 252.229497,14.4511631 251.313477,16.2011719 C250.397456,17.9511806 249.522465,19.9882696 248.688477,22.3125 C247.854488,24.6367304 247.109378,27.111315 246.453125,29.7363281 C245.796872,32.3613413 245.277346,35.0615096 244.894531,37.8369141 C244.511717,40.6123186 244.320312,43.3124869 244.320312,45.9375 Z M260.521484,108.9375 C261.669928,108.9375 262.756831,108.602542 263.782227,107.932617 C264.807622,107.262692 265.750972,106.380865 266.612305,105.287109 C267.473637,104.193354 268.259762,102.949226 268.970703,101.554688 C269.681644,100.160149 270.310544,98.7314526 270.857422,97.2685547 C271.4043,95.8056567 271.869139,94.3769601 272.251953,92.9824219 C272.634768,91.5878837 272.935546,90.3437555 273.154297,89.25 C272.087885,89.9609411 271.000982,90.8085888 269.893555,91.7929688 C268.786127,92.7773487 267.70606,93.8369084 266.65332,94.9716797 C265.600581,96.106451 264.602544,97.2753846 263.65918,98.4785156 C262.715816,99.6816466 261.888675,100.836909 261.177734,101.944336 C260.466793,103.051763 259.906252,104.08398 259.496094,105.041016 C259.085935,105.998052 258.880859,106.791012 258.880859,107.419922 C258.880859,108.431646 259.427729,108.9375 260.521484,108.9375 Z" id="Wheatly" fill="#F8F8F8" filter="url(#filter-1)" sketch:type="MSShapeGroup"></path>
</svg>
